<?xml version="1.0" encoding="utf-8"?>
<!-- Generator: Adobe Illustrator 17.1.0, SVG Export Plug-In . SVG Version: 6.00 Build 0)  -->
<!DOCTYPE svg PUBLIC "-//W3C//DTD SVG 1.1//EN" "http://www.w3.org/Graphics/SVG/1.1/DTD/svg11.dtd">
<svg version="1.1" id="Layer_1" xmlns="http://www.w3.org/2000/svg" xmlns:xlink="http://www.w3.org/1999/xlink" x="0px" y="0px"
	 viewBox="153.2 584.5 2.3 4.6" enable-background="new 153.2 584.5 2.3 4.6" xml:space="preserve">
<g>
	
		<ellipse transform="matrix(-0.4308 -0.9024 0.9024 -0.4308 -172.89 377.9362)" fill="#C2B59B" cx="32.7" cy="243.5" rx="8" ry="2.9"/>
	<path fill="#9B8579" d="M36.2,250.7c-1.5,0.7-4.2-2-6.1-6c-1.9-4-2.3-7.8-0.8-8.5L36.2,250.7z"/>
	<path fill="#C2B59B" d="M34.3,236.6C34.3,236.6,34.2,236.6,34.3,236.6c-0.3,0.5-0.5,0.9-0.6,1.5c-0.3,1.2-0.5,2.5-0.7,3.7
		c-0.3,1.8,1.1,3.3,2.4,4.3c0.2,0.2,0.5,0.4,0.7,0.5c1.6-0.3,3.1-0.7,4.6-1.3c0.2-0.1,0.4-0.1,0.5-0.2c-0.4-1.3-0.9-2.7-1.6-4.1
		c-0.9-1.8-1.9-3.4-2.9-4.7C36,236.8,35.2,236.9,34.3,236.6z"/>
	<path fill="#9B8579" d="M32.9,241.8c-0.3,1.8,1.1,3.3,2.4,4.3c0.2,0.2,0.5,0.4,0.7,0.5c0.6-0.1,1.2-0.3,1.9-0.4l-4.1-8.5
		c0,0.1-0.1,0.2-0.1,0.4C33.3,239.3,33.1,240.6,32.9,241.8z"/>
	<path fill="#39B54A" d="M46.2,247.5l-3.2-3.2c0.5-0.9,0.8-1.8,0.8-2.9c0-3.4-2.7-6.1-6.1-6.1c-3.4,0-6.1,2.7-6.1,6.1
		s2.7,6.1,6.1,6.1c1,0,2-0.3,2.9-0.8l3.2,3.2c0.3,0.3,0.9,0.3,1.2,0l1.2-1.2C46.6,248.4,46.6,247.8,46.2,247.5z M41.7,243
		c-0.4,1.1-1.3,2-2.5,2.5c-0.5,0.2-1,0.3-1.6,0.3c-2.4,0-4.4-2-4.4-4.4c0-2.4,2-4.4,4.4-4.4c2.4,0,4.4,2,4.4,4.4
		C42,242,41.9,242.5,41.7,243z"/>
</g>
<path fill="#39B54A" d="M46.6,179.2l-3.2-3.2c0.5-0.9,0.8-1.8,0.8-2.9c0-3.4-2.7-6.1-6.1-6.1c-3.4,0-6.1,2.7-6.1,6.1
	s2.7,6.1,6.1,6.1c1,0,2-0.3,2.9-0.8l3.2,3.2c0.3,0.3,0.9,0.3,1.2,0l1.2-1.2C47,180.1,47,179.5,46.6,179.2z M42.1,174.7
	c-0.4,1.1-1.3,2-2.5,2.5c-0.5,0.2-1,0.3-1.6,0.3c-2.4,0-4.4-2-4.4-4.4c0-2.4,2-4.4,4.4-4.4c2.4,0,4.4,2,4.4,4.4
	C42.4,173.7,42.3,174.2,42.1,174.7z"/>
<path fill="#808285" d="M155.3,553.2l-0.9-0.9c0.1-0.2,0.2-0.5,0.2-0.8c0-0.9-0.8-1.7-1.7-1.7c-0.9,0-1.7,0.8-1.7,1.7
	s0.8,1.7,1.7,1.7c0.3,0,0.6-0.1,0.8-0.2l0.9,0.9c0.1,0.1,0.3,0.1,0.3,0l0.3-0.3C155.3,553.4,155.3,553.3,155.3,553.2z M154,551.9
	c-0.1,0.3-0.4,0.6-0.7,0.7c-0.1,0.1-0.3,0.1-0.4,0.1c-0.7,0-1.2-0.5-1.2-1.2c0-0.7,0.6-1.2,1.2-1.2c0.7,0,1.2,0.5,1.2,1.2
	C154.1,551.6,154,551.8,154,551.9z"/>
<ellipse transform="matrix(-0.4308 -0.9024 0.9024 -0.4308 -135.1985 332.2397)" fill="#C2B59B" cx="37.2" cy="208.8" rx="8" ry="2.9"/>
<path fill="#9B8579" d="M40.6,216c-1.5,0.7-4.2-2-6.1-6c-1.9-4-2.3-7.8-0.8-8.5L40.6,216z"/>
<g>
	<path fill="#39B54A" d="M32.2,281.5l-1.4,1.5l0.6,0.6l1.5-1.4c8.2,2.7,10.4-4.2,10.4-11.1C38.7,275,30.3,272.8,32.2,281.5z
		 M34.3,280.9c-0.2,0.2-0.5,0.2-0.7,0c-0.1-0.1-0.2-0.2-0.2-0.4c0-0.1,0.1-0.3,0.2-0.4l8.1-6.7L34.3,280.9z"/>
</g>
<g>
	<path fill="#39B54A" d="M41.4,313.7h-3l-2-8.9h-1l1,8.9h-3c-0.5,0-0.8,0.4-0.7,0.9l1.3,4c0.2,0.5,0.8,0.9,1.3,0.9h3.9
		c0.5,0,1.1-0.4,1.3-0.9l1.3-4C42.2,314.1,41.9,313.7,41.4,313.7z"/>
	<path fill="#39B54A" d="M44.9,303.8c-5.9,0-6.9,3.9-6.9,5.9l3.9-3l-2.6,3.5C42.2,310.8,45.8,308.1,44.9,303.8z"/>
	<path fill="#39B54A" d="M32.3,309.4l3,2c0-3.9-4.9-3.9-5.9-3.9c0.8,3.1,2.7,4.3,4.5,4.3L32.3,309.4z"/>
</g>
<g>
	<polygon fill="#939598" points="27.6,482.8 27.6,488.2 32.1,488.2 32.1,489.9 36.5,485.5 32.1,481.1 32.1,482.8 	"/>
	<g>
		<path fill="#39B54A" d="M45.6,485.5h-2.7l-1.8-8h-0.9l0.9,8h-2.7c-0.5,0-0.8,0.4-0.6,0.8l1.2,3.6c0.2,0.5,0.7,0.8,1.2,0.8h3.5
			c0.5,0,1-0.4,1.2-0.8l1.2-3.6C46.4,485.9,46.1,485.5,45.6,485.5z"/>
		<path fill="#39B54A" d="M48.8,476.6c-5.3,0-6.2,3.5-6.2,5.3l3.5-2.7l-2.4,3.1C46.4,482.9,49.5,480.5,48.8,476.6z"/>
		<path fill="#39B54A" d="M37.4,481.6l2.7,1.8c0-3.5-4.4-3.5-5.3-3.5c0.7,2.8,2.5,3.9,4,3.9L37.4,481.6z"/>
	</g>
</g>
<g>
	<path fill="#39B54A" d="M41.4,519.6h-3l-2-8.9h-1l1,8.9h-3c-0.5,0-0.8,0.4-0.7,0.9l1.3,4c0.2,0.5,0.8,0.9,1.3,0.9h3.9
		c0.5,0,1.1-0.4,1.3-0.9l1.3-4C42.2,520.1,41.9,519.6,41.4,519.6z"/>
	<path fill="#F7941E" d="M44.9,509.8c-5.9,0-6.9,3.9-6.9,5.9l3.9-3l-2.6,3.5C42.2,516.8,45.8,514,44.9,509.8z"/>
	<path fill="#F7941E" d="M32.3,515.4l3,2c0-3.9-4.9-3.9-5.9-3.9c0.8,3.1,2.7,4.3,4.5,4.3L32.3,515.4z"/>
</g>
<g>
	<g>
		<path fill="#39B54A" d="M32.8,337.3l-0.7-0.7c-0.2-0.2-0.5-0.2-0.7,0c-0.2,0.2-0.2,0.5,0,0.7l0.7,0.7c0.2,0.2,0.5,0.2,0.7,0
			C33,337.8,33,337.5,32.8,337.3z"/>
		<path fill="#39B54A" d="M30.2,341.6h-1c-0.3,0-0.5,0.2-0.5,0.5c0,0.3,0.2,0.5,0.5,0.5h1c0.3,0,0.5-0.2,0.5-0.5
			C30.7,341.8,30.5,341.6,30.2,341.6z"/>
		<path fill="#39B54A" d="M44,342.6h-1c-0.3,0-0.5,0.2-0.5,0.5c0,0.3,0.2,0.5,0.5,0.5h1c0.3,0,0.5-0.2,0.5-0.5
			C44.5,342.8,44.2,342.6,44,342.6z"/>
		<path fill="#39B54A" d="M42.5,337.3c-0.2-0.2-0.5-0.2-0.7,0l-0.7,0.7c-0.2,0.2-0.2,0.5,0,0.7c0.2,0.2,0.5,0.2,0.7,0l0.7-0.7
			C42.7,337.8,42.7,337.5,42.5,337.3z"/>
		<path fill="#39B54A" d="M37.1,336.7c0.1,0,0.3-0.1,0.3-0.1c0.1-0.1,0.1-0.2,0.1-0.3v-1c0-0.3-0.2-0.5-0.5-0.5
			c-0.2,0-0.4,0.1-0.5,0.3l0,0.2l0,1C36.6,336.4,36.8,336.7,37.1,336.7z"/>
	</g>
	<g>
		<path fill="#39B54A" d="M40.8,351.4h-3l-2-8.9h-1l1,8.9h-3c-0.5,0-0.8,0.4-0.7,0.9l1.3,4c0.2,0.5,0.8,0.9,1.3,0.9h3.9
			c0.5,0,1.1-0.4,1.3-0.9l1.3-4C41.6,351.8,41.3,351.4,40.8,351.4z"/>
		<path fill="#39B54A" d="M44.3,341.6c-5.9,0-6.9,3.9-6.9,5.9l3.9-3l-2.6,3.5C41.7,348.6,45.2,345.8,44.3,341.6z"/>
		<path fill="#39B54A" d="M31.7,347.1l3,2c0-3.9-4.9-3.9-5.9-3.9c0.8,3.1,2.7,4.3,4.5,4.3L31.7,347.1z"/>
	</g>
</g>
<g>
	<g>
		<path fill="#39B54A" d="M40.4,450.9h-3l-2-8.9h-1l1,8.9h-3c-0.5,0-0.8,0.4-0.7,0.9l1.3,4c0.2,0.5,0.8,0.9,1.3,0.9h3.9
			c0.5,0,1.1-0.4,1.3-0.9l1.3-4C41.3,451.3,41,450.9,40.4,450.9z"/>
		<path fill="#39B54A" d="M44,441.1c-5.9,0-6.9,3.9-6.9,5.9l3.9-3l-2.6,3.5C41.3,448.1,44.8,445.3,44,441.1z"/>
		<path fill="#39B54A" d="M31.3,446.6l3,2c0-3.9-4.9-3.9-5.9-3.9c0.8,3.1,2.7,4.3,4.5,4.3L31.3,446.6z"/>
	</g>
	<path fill="#808285" d="M44.9,455.3l-1.8-1.8c0.3-0.5,0.4-1,0.4-1.6c0-1.9-1.5-3.4-3.4-3.4c-1.9,0-3.4,1.5-3.4,3.4
		c0,1.9,1.5,3.4,3.4,3.4c0.6,0,1.1-0.2,1.6-0.4l1.8,1.8c0.2,0.2,0.5,0.2,0.7,0L45,456C45.1,455.8,45.1,455.5,44.9,455.3z
		 M42.4,452.7c-0.2,0.6-0.8,1.1-1.4,1.4c-0.3,0.1-0.6,0.2-0.9,0.2c-1.4,0-2.5-1.1-2.5-2.5c0-1.4,1.1-2.5,2.5-2.5
		c1.4,0,2.5,1.1,2.5,2.5C42.6,452.2,42.5,452.5,42.4,452.7z"/>
</g>
<g>
	<g>
		<path fill="#B9D532" d="M32.2,374.4h-2.1c-0.2,0-0.4,0.2-0.4,0.4v2.1c0,0.2,0.2,0.4,0.4,0.4h2.1c0.2,0,0.4-0.2,0.4-0.4v-2.1
			C32.6,374.5,32.4,374.4,32.2,374.4z"/>
		<path fill="#B9D532" d="M32.2,378.7h-2.1c-0.2,0-0.4,0.2-0.4,0.4v2.1c0,0.2,0.2,0.4,0.4,0.4h2.1c0.2,0,0.4-0.2,0.4-0.4V379
			C32.6,378.8,32.4,378.7,32.2,378.7z"/>
		<path fill="#B9D532" d="M32.2,382.9h-2.1c-0.2,0-0.4,0.2-0.4,0.4v2.1c0,0.2,0.2,0.4,0.4,0.4h2.1c0.2,0,0.4-0.2,0.4-0.4v-2.1
			C32.6,383.1,32.4,382.9,32.2,382.9z"/>
		<path fill="#B9D532" d="M40.7,374.4h-6.4c-0.2,0-0.4,0.2-0.4,0.4v2.1c0,0.2,0.2,0.4,0.4,0.4h6.4c0.2,0,0.4-0.2,0.4-0.4v-2.1
			C41.1,374.5,40.9,374.4,40.7,374.4z"/>
		<path fill="#B9D532" d="M40.7,378.7h-6.4c-0.2,0-0.4,0.2-0.4,0.4v2.1c0,0.2,0.2,0.4,0.4,0.4h6.4c0.2,0,0.4-0.2,0.4-0.4V379
			C41.1,378.8,40.9,378.7,40.7,378.7z"/>
		<path fill="#B9D532" d="M40.7,382.9h-6.4c-0.2,0-0.4,0.2-0.4,0.4v2.1c0,0.2,0.2,0.4,0.4,0.4h6.4c0.2,0,0.4-0.2,0.4-0.4v-2.1
			C41.1,383.1,40.9,382.9,40.7,382.9z"/>
	</g>
	<path fill="#808285" d="M46.7,384.2l-2.3-2.3c0.3-0.6,0.6-1.3,0.6-2.1c0-2.5-2-4.5-4.5-4.5c-2.5,0-4.5,2-4.5,4.5
		c0,2.5,2,4.5,4.5,4.5c0.8,0,1.5-0.2,2.1-0.6l2.3,2.3c0.2,0.2,0.7,0.2,0.9,0l0.9-0.9C46.9,384.9,46.9,384.5,46.7,384.2z M43.4,381
		c-0.3,0.8-1,1.5-1.8,1.8c-0.4,0.1-0.8,0.2-1.2,0.2c-1.8,0-3.2-1.4-3.2-3.2c0-1.8,1.4-3.2,3.2-3.2c1.8,0,3.2,1.4,3.2,3.2
		C43.6,380.2,43.5,380.6,43.4,381z"/>
</g>
<g>
	<g>
		<path fill="#39B54A" d="M296.2,382.3h-3l-2-8.9h-1l1,8.9h-3c-0.5,0-0.8,0.4-0.7,0.9l1.3,4c0.2,0.5,0.8,0.9,1.3,0.9h3.9
			c0.5,0,1.1-0.4,1.3-0.9l1.3-4C297,382.7,296.7,382.3,296.2,382.3z"/>
		<path fill="#39B54A" d="M299.7,372.4c-5.9,0-6.9,3.9-6.9,5.9l3.9-3l-2.6,3.5C297,379.4,300.6,376.7,299.7,372.4z"/>
		<path fill="#39B54A" d="M287.1,378l3,2c0-3.9-4.9-3.9-5.9-3.9c0.8,3.1,2.7,4.3,4.5,4.3L287.1,378z"/>
	</g>
	<path fill="#808285" d="M300.6,386.2l-2.3-2.3c0.3-0.6,0.6-1.3,0.6-2.1c0-2.5-2-4.5-4.5-4.5c-2.5,0-4.5,2-4.5,4.5
		c0,2.5,2,4.5,4.5,4.5c0.8,0,1.5-0.2,2.1-0.6l2.3,2.3c0.2,0.2,0.7,0.2,0.9,0l0.9-0.9C300.8,386.9,300.8,386.4,300.6,386.2z
		 M297.3,382.9c-0.3,0.8-1,1.5-1.8,1.8c-0.4,0.1-0.8,0.2-1.2,0.2c-1.8,0-3.2-1.4-3.2-3.2c0-1.8,1.4-3.2,3.2-3.2
		c1.8,0,3.2,1.4,3.2,3.2C297.5,382.2,297.4,382.6,297.3,382.9z"/>
</g>
<g>
	<path fill="#B9D532" d="M411.1,200.9h-2.7c-0.2,0-0.4,0.2-0.4,0.4v2.7c0,0.2,0.2,0.4,0.4,0.4h2.7c0.2,0,0.4-0.2,0.4-0.4v-2.7
		C411.5,201.1,411.3,200.9,411.1,200.9z"/>
	<path fill="#D1B400" d="M411.1,206.2h-2.7c-0.2,0-0.4,0.2-0.4,0.4v2.7c0,0.2,0.2,0.4,0.4,0.4h2.7c0.2,0,0.4-0.2,0.4-0.4v-2.7
		C411.5,206.4,411.3,206.2,411.1,206.2z"/>
	<path fill="#A38528" d="M411.1,211.6h-2.7c-0.2,0-0.4,0.2-0.4,0.4v2.7c0,0.2,0.2,0.4,0.4,0.4h2.7c0.2,0,0.4-0.2,0.4-0.4v-2.7
		C411.5,211.8,411.3,211.6,411.1,211.6z"/>
	<path fill="#B9D532" d="M421.9,200.9h-8.1c-0.2,0-0.4,0.2-0.4,0.4v2.7c0,0.2,0.2,0.4,0.4,0.4h8.1c0.2,0,0.4-0.2,0.4-0.4v-2.7
		C422.3,201.1,422.1,200.9,421.9,200.9z"/>
	<path fill="#D1B400" d="M421.9,206.2h-8.1c-0.2,0-0.4,0.2-0.4,0.4v2.7c0,0.2,0.2,0.4,0.4,0.4h8.1c0.2,0,0.4-0.2,0.4-0.4v-2.7
		C422.3,206.4,422.1,206.2,421.9,206.2z"/>
	<path fill="#A38528" d="M421.9,211.6h-8.1c-0.2,0-0.4,0.2-0.4,0.4v2.7c0,0.2,0.2,0.4,0.4,0.4h8.1c0.2,0,0.4-0.2,0.4-0.4v-2.7
		C422.3,211.8,422.1,211.6,421.9,211.6z"/>
</g>
<g>
	<rect x="31.1" y="545.4" fill="#2BB673" width="12.9" height="12.9"/>
	<line fill="none" stroke="#FFFFFF" stroke-miterlimit="10" x1="39.2" y1="545.4" x2="39.2" y2="558.3"/>
	<line fill="none" stroke="#FFFFFF" stroke-miterlimit="10" x1="39.2" y1="549.4" x2="31.1" y2="549.4"/>
</g>
<rect x="55.8" y="242.4" fill="none" width="75.1" height="22.8"/>
<text transform="matrix(1 0 0 1 55.7989 247.4965)" font-family="'HelveticaNeue-Thin'" font-size="7.2004">Germplasm Details</text>
<rect x="55.8" y="308.2" fill="none" width="75.1" height="22.8"/>
<text transform="matrix(1 0 0 1 55.7989 313.3076)" font-family="'HelveticaNeue-Thin'" font-size="7.2004">Manage Nurseries</text>
<rect x="55.8" y="274.8" fill="none" width="75.1" height="22.8"/>
<text transform="matrix(1 0 0 1 55.7989 279.9872)" font-family="'HelveticaNeue-Thin'" font-size="7.2004">Programs</text>
<rect x="55.8" y="342.9" fill="none" width="75.1" height="22.8"/>
<text transform="matrix(1 0 0 1 55.7989 348.0156)" font-family="'HelveticaNeue-Thin'" font-size="7.2004">Make a New Nursery</text>
<rect x="54.4" y="377.6" fill="none" width="75.1" height="22.8"/>
<text transform="matrix(1 0 0 1 54.3828 382.7178)" font-family="'HelveticaNeue-Thin'" font-size="7.2004">Review List Details</text>
<rect x="55.8" y="411.5" fill="none" width="75.1" height="22.8"/>
<text transform="matrix(1 0 0 1 55.7989 416.6835)" font-family="'HelveticaNeue-Thin'" font-size="7.2004">Build a New List</text>
<rect x="55.8" y="445.4" fill="none" width="75.1" height="22.8"/>
<text transform="matrix(1 0 0 1 55.7989 450.5498)" font-family="'HelveticaNeue-Thin'" font-size="7.2004">Search Nurseries</text>
<rect x="55.8" y="481.2" fill="none" width="75.1" height="22.8"/>
<text transform="matrix(1 0 0 1 55.7989 486.3291)" font-family="'HelveticaNeue-Thin'" font-size="7.2004">Plot Level Details</text>
<rect x="55.8" y="514.8" fill="none" width="75.1" height="22.8"/>
<text transform="matrix(1 0 0 1 55.7989 519.9473)" font-family="'HelveticaNeue-Thin'" font-size="7.2004">Baseline Traits</text>
<rect x="55.8" y="549.9" fill="none" width="75.1" height="22.8"/>
<text transform="matrix(1 0 0 1 55.7989 555.0059)" font-family="'HelveticaNeue-Thin'" font-size="7.2004">Field Layout</text>
<rect x="55.8" y="583.4" fill="none" width="75.1" height="22.8"/>
<text transform="matrix(1 0 0 1 55.7989 588.582)" font-family="'HelveticaNeue-Thin'" font-size="7.2004">Basic Details</text>
<rect x="174.2" y="241.3" fill="none" width="70.5" height="22.8"/>
<text transform="matrix(1 0 0 1 174.2426 246.4013)" font-family="'HelveticaNeue-Thin'" font-size="7.2004">Attributes</text>
<rect x="174.2" y="274.3" fill="none" width="70.5" height="22.8"/>
<text transform="matrix(1 0 0 1 174.2426 279.4838)" font-family="'HelveticaNeue-Thin'" font-size="7.2004">Manage Settings</text>
<rect x="174.2" y="308.9" fill="none" width="70.5" height="22.8"/>
<text transform="matrix(1 0 0 1 174.2426 314.0649)" font-family="'HelveticaNeue-Thin'" font-size="7.2004">Matching Nurseries</text>
<rect x="55.8" y="204.7" fill="none" width="75.1" height="22.8"/>
<text transform="matrix(1 0 0 1 55.7989 209.8424)" font-family="'HelveticaNeue-Thin'" font-size="7.2004">Matching Germplasms</text>
<rect x="174.2" y="204.7" fill="none" width="70.5" height="22.8"/>
<text transform="matrix(1 0 0 1 174.2426 209.8424)" font-family="'HelveticaNeue-Thin'" font-size="7.2004">Group Relatives</text>
<rect x="55.8" y="170.5" fill="none" width="67.6" height="8.5"/>
<text transform="matrix(1 0 0 1 55.7989 175.645)" font-family="'HelveticaNeue-Thin'" font-size="7.2004">Find Germplasms</text>
<rect x="174.2" y="170.5" fill="none" width="70.5" height="22.8"/>
<text transform="matrix(1 0 0 1 174.2426 175.645)" font-family="'HelveticaNeue-Thin'" font-size="7.2004">Pedigree Tree</text>
<g>
	<path fill="#1C75BC" d="M155.4,175.6l1,0.3c0.2,0.1,0.5-0.1,0.5-0.3l0-1c0-0.3,0.2-0.5,0.4-0.6l1-0.3c0.2-0.1,0.3-0.3,0.2-0.5
		l-0.6-0.8c-0.2-0.2-0.2-0.6,0-0.8l0.6-0.8c0.2-0.2,0.1-0.4-0.2-0.5l-1-0.3c-0.2-0.1-0.4-0.4-0.4-0.6l0-1c0-0.3-0.2-0.4-0.5-0.3
		l-1,0.3c-0.2,0.1-0.6,0-0.7-0.2L154,167c-0.2-0.2-0.4-0.2-0.6,0l-0.6,0.8c-0.2,0.2-0.5,0.3-0.7,0.2l-1-0.3
		c-0.2-0.1-0.5,0.1-0.5,0.3l0,1c0,0.3-0.2,0.5-0.4,0.6l-1,0.3c-0.2,0.1-0.3,0.3-0.2,0.5l0.6,0.8c0.2,0.2,0.2,0.6,0,0.8l-0.6,0.8
		c-0.2,0.2-0.1,0.4,0.2,0.5l1,0.3c0.2,0.1,0.4,0.4,0.4,0.6l0,1c0,0.3,0.2,0.4,0.5,0.3l1-0.3c0.2-0.1,0.6,0,0.7,0.2l0.6,0.8
		c0.2,0.2,0.4,0.2,0.6,0l0.6-0.8C154.8,175.6,155.1,175.5,155.4,175.6z"/>
	<path fill="#1C75BC" d="M151.9,177.5l-0.3-0.4l-0.5,0.1c-0.2,0.1-0.4,0.1-0.6,0.1c-0.8,0-1.5-0.5-1.7-1.3l-2.9,3.1h2.8v2.8l3.7-4
		C152.3,177.9,152.1,177.7,151.9,177.5z"/>
	<path fill="#1C75BC" d="M157.8,175.7c-0.1,0.9-0.8,1.7-1.7,1.7c-0.2,0-0.4,0-0.6-0.1l-0.5-0.1l-0.3,0.4c-0.1,0.1-0.2,0.3-0.3,0.4
		l3.9,4.1v-2.8h2.8L157.8,175.7z"/>
</g>
<g>
	<circle fill="#8B5E3C" cx="149.9" cy="204.4" r="1.4"/>
	<circle fill="#8B5E3C" cx="157.1" cy="204.4" r="1.4"/>
	<circle fill="#8B5E3C" cx="153.5" cy="211.6" r="1.4"/>
	
		<rect x="150.1" y="207.9" transform="matrix(-0.7071 0.7071 -0.7071 -0.7071 404.8913 250.9167)" fill="#8B5E3C" width="0.7" height="2.9"/>
	
		<rect x="156.2" y="207.9" transform="matrix(0.7072 0.7071 -0.7071 0.7072 193.8397 -49.4135)" fill="#8B5E3C" width="0.7" height="2.9"/>
	<path fill="#8B5E3C" d="M152.1,207.3c0-0.8-1-1.4-2.2-1.4c-1.2,0-2.2,0.6-2.2,1.4v0L152.1,207.3L152.1,207.3z"/>
	<path fill="#8B5E3C" d="M157.1,205.9c-1.2,0-2.2,0.6-2.2,1.4v0h4.3v0C159.3,206.5,158.3,205.9,157.1,205.9z"/>
	<path fill="#8B5E3C" d="M153.5,213.1c-1.2,0-2.2,0.6-2.2,1.4v0h4.3v0C155.7,213.7,154.7,213.1,153.5,213.1z"/>
</g>
<g>
	<circle fill="#009444" cx="150.1" cy="239.4" r="0.5"/>
	<circle fill="#009444" cx="151.5" cy="239.4" r="0.5"/>
	<circle fill="#009444" cx="153" cy="239.4" r="0.5"/>
	<path fill="#009444" d="M157.8,237.6h-8.6c-0.8,0-1.4,0.6-1.4,1.4v8.6c0,0.8,0.6,1.4,1.4,1.4h2.2v-0.7h-2.2c-0.4,0-0.7-0.3-0.7-0.7
		v-6.5h10.1v1.4h0.7v-3.6C159.3,238.3,158.6,237.6,157.8,237.6z M158.6,240.5h-10.1v-1.4c0-0.4,0.3-0.7,0.7-0.7h8.6
		c0.4,0,0.7,0.3,0.7,0.7V240.5z"/>
	
		<rect x="154.9" y="243" transform="matrix(0.7071 0.7071 -0.7071 0.7071 219.4318 -38.6812)" fill="#009444" width="3.1" height="5.1"/>
	<polygon fill="#009444" points="152.8,249.1 155,249.1 152.8,247 	"/>
</g>
<path fill="#21409A" d="M158.7,276.8h-1.5c-0.1-0.3-0.2-0.6-0.4-0.8l1-1c0.2-0.2,0.2-0.6,0-0.8l-0.4-0.4c-0.2-0.2-0.6-0.2-0.8,0
	l-1,1c-0.3-0.2-0.6-0.3-0.9-0.4v-1.3c0-0.3-0.3-0.6-0.6-0.6h-0.6c-0.3,0-0.6,0.3-0.6,0.6v1.3c-0.3,0.1-0.7,0.2-1,0.4l-0.8-0.8
	c-0.2-0.2-0.6-0.2-0.8,0l-0.4,0.4c-0.2,0.2-0.2,0.6,0,0.8l0.9,0.9c-0.2,0.3-0.3,0.7-0.4,1h-1.1c-0.3,0-0.6,0.3-0.6,0.6v0.6
	c0,0.3,0.3,0.6,0.6,0.6h1.2c0.1,0.4,0.3,0.7,0.5,1l-0.8,0.8c-0.2,0.2-0.2,0.6,0,0.8l0.4,0.4c0.2,0.2,0.6,0.2,0.9,0l0.9-0.9
	c0.3,0.2,0.6,0.3,1,0.3v1.3c0,0.3,0.3,0.6,0.6,0.6h0.6c0.3,0,0.6-0.3,0.6-0.6v-1.4c0.3-0.1,0.6-0.3,0.8-0.4l1,1
	c0.2,0.2,0.6,0.2,0.8,0l0.4-0.4c0.2-0.2,0.2-0.6,0-0.8l-1.1-1.1c0.1-0.3,0.2-0.5,0.3-0.8h1.4c0.3,0,0.6-0.3,0.6-0.6v-0.6
	C159.3,277.1,159,276.8,158.7,276.8z M153.7,279.4c-0.8,0-1.5-0.7-1.5-1.5c0-0.8,0.7-1.5,1.5-1.5c0.8,0,1.5,0.7,1.5,1.5
	C155.2,278.7,154.6,279.4,153.7,279.4z"/>
<g>
	<ellipse fill="#1C75BC" cx="153.5" cy="307.4" rx="5" ry="1.4"/>
	<path fill="#1C75BC" d="M148.5,308.6v1.7c0,0.8,2.3,1.4,5,1.4c2.8,0,5-0.6,5-1.4v-1.7c-1.4,1-4.6,1-5,1
		C153.1,309.6,149.9,309.5,148.5,308.6z"/>
	<path fill="#1C75BC" d="M148.5,311.4v1.7c0,0.8,2.3,1.4,5,1.4c2.8,0,5-0.6,5-1.4v-1.7c-1.4,1-4.6,1-5,1
		C153.1,312.4,149.9,312.4,148.5,311.4z"/>
	<path fill="#1C75BC" d="M148.5,314.3v1.7c0,0.8,2.3,1.4,5,1.4c2.8,0,5-0.6,5-1.4v-1.7c-1.4,1-4.6,1-5,1
		C153.1,315.3,149.9,315.3,148.5,314.3z"/>
</g>
<rect x="174.2" y="344.2" fill="none" width="70.5" height="22.8"/>
<text transform="matrix(1 0 0 1 174.2426 349.293)" font-family="'HelveticaNeue-Thin'" font-size="7.2004">Load From Excel</text>
<rect x="174.2" y="375.8" fill="none" width="70.5" height="22.8"/>
<text transform="matrix(1 0 0 1 174.2426 380.9521)" font-family="'HelveticaNeue-Thin'" font-size="7.2004">Tools</text>
<rect x="174.2" y="410.8" fill="none" width="70.5" height="22.8"/>
<text transform="matrix(1 0 0 1 174.2426 415.9639)" font-family="'HelveticaNeue-Thin'" font-size="7.2004">Add [folder/program]</text>
<rect x="174.2" y="445.4" fill="none" width="70.5" height="22.8"/>
<text transform="matrix(1 0 0 1 174.2426 450.5498)" font-family="'HelveticaNeue-Thin'" font-size="7.2004">Recent Activity</text>
<rect x="174.2" y="481.3" fill="none" width="70.5" height="22.8"/>
<text transform="matrix(1 0 0 1 174.2426 486.3926)" font-family="'HelveticaNeue-Thin'" font-size="7.2004">Trial Icon</text>
<rect x="174.2" y="514.1" fill="none" width="70.5" height="22.8"/>
<text transform="matrix(1 0 0 1 174.2426 519.288)" font-family="'HelveticaNeue-Thin'" font-size="7.2004">Folder Icon</text>
<rect x="174.2" y="549.4" fill="none" width="70.5" height="22.8"/>
<text transform="matrix(1 0 0 1 174.2426 554.5566)" font-family="'HelveticaNeue-Thin'" font-size="7.2004">View More Details Icon</text>
<rect x="174.2" y="583.4" fill="none" width="70.5" height="22.8"/>
<text transform="matrix(1 0 0 1 174.2426 588.582)" font-family="'HelveticaNeue-Thin'" font-size="7.2004">Collapsed Arrow</text>
<rect x="174.2" y="617.8" fill="none" width="70.5" height="22.8"/>
<text transform="matrix(1 0 0 1 174.2426 622.8925)" font-family="'HelveticaNeue-Thin'" font-size="7.2004">Expanded Arrow</text>
<rect x="312.5" y="241.3" fill="none" width="70.5" height="22.8"/>
<text transform="matrix(1 0 0 1 312.4511 246.4013)" font-family="'HelveticaNeue-Thin'" font-size="7.2004">Add</text>
<rect x="312.5" y="274.3" fill="none" width="70.5" height="22.8"/>
<text transform="matrix(1 0 0 1 312.4511 279.4838)" font-family="'HelveticaNeue-Thin'" font-size="7.2004">Delete</text>
<rect x="312.5" y="308.9" fill="none" width="70.5" height="22.8"/>
<text transform="matrix(1 0 0 1 312.4511 314.0649)" font-family="'HelveticaNeue-Thin'" font-size="7.2004">Select Parents</text>
<rect x="312.5" y="204.7" fill="none" width="70.5" height="22.8"/>
<text transform="matrix(1 0 0 1 312.4511 209.8424)" font-family="'HelveticaNeue-Thin'" font-size="7.2004">Edit</text>
<rect x="312.5" y="170.5" fill="none" width="70.5" height="22.8"/>
<text transform="matrix(1 0 0 1 312.4511 175.645)" font-family="'HelveticaNeue-Thin'" font-size="7.2004">Copy</text>
<rect x="312.5" y="344.2" fill="none" width="70.5" height="22.8"/>
<text transform="matrix(1 0 0 1 312.4511 349.293)" font-family="'HelveticaNeue-Thin'" font-size="7.2004">Review Crosses</text>
<rect x="312.5" y="375.8" fill="none" width="70.5" height="22.8"/>
<text transform="matrix(1 0 0 1 312.4511 380.9521)" font-family="'HelveticaNeue-Thin'" font-size="7.2004">Study Details</text>
<rect x="312.5" y="410.8" fill="none" width="70.5" height="22.8"/>
<text transform="matrix(1 0 0 1 312.4511 415.9639)" font-family="'HelveticaNeue-Thin'" font-size="7.2004">Dataset</text>
<rect x="312.5" y="445.4" fill="none" width="70.5" height="22.8"/>
<text transform="matrix(1 0 0 1 312.4511 450.5498)" font-family="'HelveticaNeue-Thin'" font-size="7.2004">Factors</text>
<rect x="312.5" y="481.3" fill="none" width="70.5" height="22.8"/>
<text transform="matrix(1 0 0 1 312.4511 486.3926)" font-family="'HelveticaNeue-Thin'" font-size="7.2004">Variates</text>
<rect x="312.5" y="514.1" fill="none" width="70.5" height="22.8"/>
<text transform="matrix(1 0 0 1 312.4511 519.288)" font-family="'HelveticaNeue-Thin'" font-size="7.2004">Tree Selector?</text>
<rect x="312.5" y="549.4" fill="none" width="70.5" height="22.8"/>
<text transform="matrix(1 0 0 1 312.4511 554.5566)" font-family="'HelveticaNeue-Thin'" font-size="7.2004">Members</text>
<rect x="312.5" y="583.4" fill="none" width="70.5" height="22.8"/>
<text transform="matrix(1 0 0 1 312.4511 588.582)" font-family="'HelveticaNeue-Thin'" font-size="7.2004">Locations</text>
<rect x="312.5" y="617.8" fill="none" width="70.5" height="22.8"/>
<text transform="matrix(1 0 0 1 312.4511 622.8925)" font-family="'HelveticaNeue-Thin'" font-size="7.2004">Methods</text>
<g>
	<polygon fill="#0076A9" points="154.1,349.8 154.1,349.8 154.1,349.8 155.7,348.3 155.7,348.3 158.7,345.2 157.2,343.7 
		155.2,345.7 155.2,340.4 153.1,340.4 153.1,345.7 151.1,343.7 149.5,345.2 152.7,348.4 	"/>
	<rect x="148.7" y="350.5" fill="#0076A9" width="10.8" height="1.4"/>
</g>
<path fill="#F15A29" d="M158.7,378.2c0-0.1-0.1-0.3-0.2-0.3c-0.1-0.1-0.3,0-0.4,0.1l-1.2,1.2l-0.4-0.4l-1.2-1.2l-0.4-0.4l1.2-1.2
	c0.1-0.1,0.1-0.3,0.1-0.4c-0.1-0.1-0.2-0.2-0.3-0.2c-0.7,0-1.4,0.3-2,0.8c-0.9,0.9-1.1,2.2-0.6,3.2l-4.5,3.9l-0.5,0.5
	c-0.6,0.6-0.6,1.5,0,2c0.6,0.6,1.5,0.6,2,0l0.5-0.5l3.9-4.5c1.1,0.5,2.3,0.3,3.2-0.6C158.4,379.6,158.7,378.9,158.7,378.2z
	 M149.7,385.3c-0.3,0.3-0.7,0.3-1,0s-0.3-0.7,0-1c0.3-0.3,0.7-0.3,1,0C150,384.5,150,385,149.7,385.3z"/>
<polygon fill="#FF5F00" points="155.6,413.9 153.4,413.9 153.4,411.7 152,411.7 152,413.9 149.8,413.9 149.8,415.3 152,415.3 
	152,417.5 153.4,417.5 153.4,415.3 155.6,415.3 "/>
<g>
	<path fill="#F15A29" d="M153.1,444c-2.7,0-5,2.2-5,5c0,2.7,2.2,5,5,5c2.7,0,5-2.2,5-5C158,446.2,155.8,444,153.1,444z M153.1,452.4
		c-1.9,0-3.5-1.6-3.5-3.5c0-1.9,1.6-3.5,3.5-3.5c1.9,0,3.5,1.6,3.5,3.5C156.6,450.9,155,452.4,153.1,452.4z"/>
	<path fill="#F15A29" d="M153.5,448.3V447c0-0.2-0.2-0.4-0.4-0.4s-0.4,0.2-0.4,0.4v1.4l0,0l0,0.1l0,0.1l0,0.1l0,0.1l0,0l1.8,1.4
		c0.1,0.1,0.1,0.1,0.2,0.1c0.1,0,0.2,0,0.3-0.1c0.1-0.2,0.1-0.4-0.1-0.5L153.5,448.3z"/>
</g>
<path d="M155.5,484C155.4,484,155.4,484,155.5,484l-0.6-0.9l-0.6-1c0.2-0.2,0.4-0.5,0.4-0.9c0-0.7-0.5-1.2-1.2-1.2
	c-0.7,0-1.2,0.5-1.2,1.2c0,0.4,0.2,0.7,0.4,0.9l-0.6,1l-0.5,0.9c0,0,0,0-0.1,0c-0.7,0-1.2,0.5-1.2,1.2c0,0.7,0.5,1.2,1.2,1.2
	c0.6,0,1-0.4,1.2-0.9h1.7c0.1,0.5,0.6,0.9,1.2,0.9c0.7,0,1.2-0.5,1.2-1.2C156.7,484.5,156.1,484,155.5,484z M154.3,484.7h-1.8
	c-0.1-0.2-0.2-0.3-0.3-0.4l0.5-0.8l0.6-1.1c0,0,0,0,0.1,0c0,0,0,0,0.1,0l0.6,1.1l0.5,0.8C154.5,484.4,154.4,484.6,154.3,484.7z"/>
<path fill="#FF4612" d="M297.9,416.3c-0.1,0-0.1,0-0.2,0l-1.1-1.9l-1.2-2.1c0.5-0.5,0.8-1.1,0.8-1.9c0-1.4-1.1-2.5-2.5-2.5
	c-1.4,0-2.5,1.1-2.5,2.5c0,0.7,0.3,1.4,0.8,1.9l-1.2,2.1l-1.1,1.9c-0.1,0-0.1,0-0.2,0c-1.4,0-2.5,1.1-2.5,2.5s1.1,2.5,2.5,2.5
	c1.2,0,2.1-0.8,2.4-1.9h3.6c0.3,1.1,1.3,1.9,2.4,1.9c1.4,0,2.5-1.1,2.5-2.5C300.5,417.4,299.3,416.3,297.9,416.3z M295.6,417.8h-3.8
	c-0.1-0.3-0.3-0.6-0.6-0.8l1-1.7l1.3-2.3c0.1,0,0.1,0,0.1,0c0.1,0,0.1,0,0.1,0l1.3,2.3l1,1.7C296,417.2,295.8,417.5,295.6,417.8z"/>
<rect x="24.4" y="161.6" fill="none" stroke="#000000" stroke-width="0.25" stroke-miterlimit="10" width="25.6" height="25.6"/>
<rect x="24.4" y="196" fill="none" stroke="#000000" stroke-width="0.25" stroke-miterlimit="10" width="25.6" height="25.6"/>
<rect x="24.4" y="230.3" fill="none" stroke="#000000" stroke-width="0.25" stroke-miterlimit="10" width="25.6" height="25.6"/>
<rect x="24.4" y="264.6" fill="none" stroke="#000000" stroke-width="0.25" stroke-miterlimit="10" width="25.6" height="25.6"/>
<rect x="24.4" y="298.9" fill="none" stroke="#000000" stroke-width="0.25" stroke-miterlimit="10" width="25.6" height="25.6"/>
<rect x="24.4" y="333.2" fill="none" stroke="#000000" stroke-width="0.25" stroke-miterlimit="10" width="25.6" height="25.6"/>
<rect x="24.4" y="367.5" fill="none" stroke="#000000" stroke-width="0.25" stroke-miterlimit="10" width="25.6" height="25.6"/>
<rect x="24.4" y="401.8" fill="none" stroke="#000000" stroke-width="0.25" stroke-miterlimit="10" width="25.6" height="25.6"/>
<rect x="24.4" y="436.1" fill="none" stroke="#000000" stroke-width="0.25" stroke-miterlimit="10" width="25.6" height="25.6"/>
<rect x="24.4" y="470.4" fill="none" stroke="#000000" stroke-width="0.25" stroke-miterlimit="10" width="25.6" height="25.6"/>
<rect x="24.4" y="504.8" fill="none" stroke="#000000" stroke-width="0.25" stroke-miterlimit="10" width="25.6" height="25.6"/>
<rect x="24.4" y="539.1" fill="none" stroke="#000000" stroke-width="0.25" stroke-miterlimit="10" width="25.6" height="25.6"/>
<rect x="24.4" y="573.4" fill="none" stroke="#000000" stroke-width="0.25" stroke-miterlimit="10" width="25.6" height="25.6"/>
<rect x="24.4" y="607.7" fill="none" stroke="#000000" stroke-width="0.25" stroke-miterlimit="10" width="25.6" height="25.6"/>
<rect x="140.7" y="161.6" fill="none" stroke="#000000" stroke-width="0.25" stroke-miterlimit="10" width="25.6" height="25.6"/>
<rect x="140.7" y="196" fill="none" stroke="#000000" stroke-width="0.25" stroke-miterlimit="10" width="25.6" height="25.6"/>
<rect x="140.7" y="230.3" fill="none" stroke="#000000" stroke-width="0.25" stroke-miterlimit="10" width="25.6" height="25.6"/>
<rect x="140.7" y="264.6" fill="none" stroke="#000000" stroke-width="0.25" stroke-miterlimit="10" width="25.6" height="25.6"/>
<rect x="140.7" y="298.9" fill="none" stroke="#000000" stroke-width="0.25" stroke-miterlimit="10" width="25.6" height="25.6"/>
<rect x="140.7" y="333.2" fill="none" stroke="#000000" stroke-width="0.25" stroke-miterlimit="10" width="25.6" height="25.6"/>
<rect x="140.7" y="367.5" fill="none" stroke="#000000" stroke-width="0.25" stroke-miterlimit="10" width="25.6" height="25.6"/>
<rect x="140.7" y="401.8" fill="none" stroke="#000000" stroke-width="0.25" stroke-miterlimit="10" width="25.6" height="25.6"/>
<rect x="140.7" y="436.1" fill="none" stroke="#000000" stroke-width="0.25" stroke-miterlimit="10" width="25.6" height="25.6"/>
<rect x="140.7" y="470.4" fill="none" stroke="#000000" stroke-width="0.25" stroke-miterlimit="10" width="25.6" height="25.6"/>
<rect x="140.7" y="504.8" fill="none" stroke="#000000" stroke-width="0.25" stroke-miterlimit="10" width="25.6" height="25.6"/>
<rect x="140.7" y="539.1" fill="none" stroke="#000000" stroke-width="0.25" stroke-miterlimit="10" width="25.6" height="25.6"/>
<rect x="140.7" y="573.4" fill="none" stroke="#000000" stroke-width="0.25" stroke-miterlimit="10" width="25.6" height="25.6"/>
<rect x="140.7" y="607.7" fill="none" stroke="#000000" stroke-width="0.25" stroke-miterlimit="10" width="25.6" height="25.6"/>
<rect x="281" y="161.6" fill="none" stroke="#000000" stroke-width="0.25" stroke-miterlimit="10" width="25.6" height="25.6"/>
<rect x="281" y="196" fill="none" stroke="#000000" stroke-width="0.25" stroke-miterlimit="10" width="25.6" height="25.6"/>
<rect x="281" y="230.3" fill="none" stroke="#000000" stroke-width="0.25" stroke-miterlimit="10" width="25.6" height="25.6"/>
<rect x="281" y="264.6" fill="none" stroke="#000000" stroke-width="0.25" stroke-miterlimit="10" width="25.6" height="25.6"/>
<rect x="281" y="298.9" fill="none" stroke="#000000" stroke-width="0.25" stroke-miterlimit="10" width="25.6" height="25.6"/>
<rect x="281" y="333.2" fill="none" stroke="#000000" stroke-width="0.25" stroke-miterlimit="10" width="25.6" height="25.6"/>
<rect x="281" y="367.5" fill="none" stroke="#000000" stroke-width="0.25" stroke-miterlimit="10" width="25.6" height="25.6"/>
<rect x="281" y="401.8" fill="none" stroke="#000000" stroke-width="0.25" stroke-miterlimit="10" width="25.6" height="25.6"/>
<rect x="281" y="436.1" fill="none" stroke="#000000" stroke-width="0.25" stroke-miterlimit="10" width="25.6" height="25.6"/>
<rect x="281" y="470.4" fill="none" stroke="#000000" stroke-width="0.25" stroke-miterlimit="10" width="25.6" height="25.6"/>
<rect x="281" y="504.8" fill="none" stroke="#000000" stroke-width="0.25" stroke-miterlimit="10" width="25.6" height="25.6"/>
<rect x="281" y="539.1" fill="none" stroke="#000000" stroke-width="0.25" stroke-miterlimit="10" width="25.6" height="25.6"/>
<rect x="281" y="573.4" fill="none" stroke="#000000" stroke-width="0.25" stroke-miterlimit="10" width="25.6" height="25.6"/>
<rect x="281" y="607.7" fill="none" stroke="#000000" stroke-width="0.25" stroke-miterlimit="10" width="25.6" height="25.6"/>
<rect x="434.2" y="204.7" fill="none" width="70.5" height="22.8"/>
<text transform="matrix(1 0 0 1 434.2305 209.8424)" font-family="'HelveticaNeue-Thin'" font-size="7.2004">List types</text>
<rect x="434.2" y="170.5" fill="none" width="70.5" height="22.8"/>
<text transform="matrix(1 0 0 1 434.2305 175.645)" font-family="'HelveticaNeue-Thin'" font-size="7.2004">Seasons</text>
<rect x="402.8" y="161.6" fill="none" stroke="#000000" stroke-width="0.25" stroke-miterlimit="10" width="25.6" height="25.6"/>
<rect x="402.8" y="196" fill="none" stroke="#000000" stroke-width="0.25" stroke-miterlimit="10" width="25.6" height="25.6"/>
<rect x="402.8" y="230.3" fill="none" stroke="#000000" stroke-width="0.25" stroke-miterlimit="10" width="25.6" height="25.6"/>
<rect x="402.8" y="264.6" fill="none" stroke="#000000" stroke-width="0.25" stroke-miterlimit="10" width="25.6" height="25.6"/>
<rect x="402.8" y="298.9" fill="none" stroke="#000000" stroke-width="0.25" stroke-miterlimit="10" width="25.6" height="25.6"/>
<rect x="402.8" y="333.2" fill="none" stroke="#000000" stroke-width="0.25" stroke-miterlimit="10" width="25.6" height="25.6"/>
<rect x="402.8" y="367.5" fill="none" stroke="#000000" stroke-width="0.25" stroke-miterlimit="10" width="25.6" height="25.6"/>
<rect x="402.8" y="401.8" fill="none" stroke="#000000" stroke-width="0.25" stroke-miterlimit="10" width="25.6" height="25.6"/>
<rect x="402.8" y="436.1" fill="none" stroke="#000000" stroke-width="0.25" stroke-miterlimit="10" width="25.6" height="25.6"/>
<rect x="402.8" y="470.4" fill="none" stroke="#000000" stroke-width="0.25" stroke-miterlimit="10" width="25.6" height="25.6"/>
<rect x="402.8" y="504.8" fill="none" stroke="#000000" stroke-width="0.25" stroke-miterlimit="10" width="25.6" height="25.6"/>
<rect x="402.8" y="539.1" fill="none" stroke="#000000" stroke-width="0.25" stroke-miterlimit="10" width="25.6" height="25.6"/>
<rect x="402.8" y="573.4" fill="none" stroke="#000000" stroke-width="0.25" stroke-miterlimit="10" width="25.6" height="25.6"/>
<rect x="402.8" y="607.7" fill="none" stroke="#000000" stroke-width="0.25" stroke-miterlimit="10" width="25.6" height="25.6"/>
<g>
	<path d="M158.6,514.2h-5l-0.7-0.7l-0.7-0.7h-1h-3.3v0.7v7.9v0.7h0.7h10.1h0.7v-7.2v-0.7H158.6z M158.6,521.4h-10.1v-7.9h3.3
		l0.7,0.7l0.7,0.7h1h4.3V521.4z"/>
</g>
<g>
	<g>
		<path fill="#939598" d="M295.4,517.8h-1.2l-0.8-3.6H293l0.4,3.6h-1.2c-0.2,0-0.3,0.2-0.3,0.4l0.5,1.6c0.1,0.2,0.3,0.4,0.5,0.4h1.6
			c0.2,0,0.5-0.2,0.5-0.4l0.5-1.6C295.7,518,295.6,517.8,295.4,517.8z"/>
		<path fill="#939598" d="M296.8,513.8c-2.4,0-2.8,1.6-2.8,2.4l1.6-1.2l-1.1,1.4C295.7,516.7,297.2,515.5,296.8,513.8z"/>
		<path fill="#939598" d="M291.7,516.1l1.2,0.8c0-1.6-2-1.6-2.4-1.6c0.3,1.2,1.1,1.8,1.8,1.7L291.7,516.1z"/>
	</g>
	<polygon fill="#6D6E71" points="289.7,519.3 289.7,515.9 291.4,517.6 	"/>
</g>
<polygon points="150.8,619.8 155.5,619.8 153.2,622.1 "/>
<polygon points="153.2,589.1 153.2,584.5 155.5,586.8 "/>
<g>
	<rect x="33.8" y="584" fill="#1C75BC" width="5" height="0.7"/>
	<rect x="33.8" y="585.5" fill="#1C75BC" width="5" height="0.7"/>
	<rect x="33.8" y="586.9" fill="#1C75BC" width="6.5" height="0.7"/>
	<rect x="33.8" y="588.3" fill="#1C75BC" width="6.5" height="0.7"/>
	<path fill="#1C75BC" d="M40.1,580.4h-7.7v11.5h10.1v-9.1L40.1,580.4z M40.3,581.6l0.9,0.9h-0.9V581.6z M41.7,591.2h-8.6v-10.1h6.5
		v2.2h2.2V591.2z"/>
</g>
<path fill="#FF4C00" d="M297.5,166.9h-6.9v2.7h-3.6v11.6h9.8v-2.7h3.6v-8.6L297.5,166.9z M297.8,168.4l1.2,1.2h-1.2V168.4z
	 M296,180.2h-8v-9.8h5.3v2.7h2.7V180.2z M294.2,172.2v-1.2l1.2,1.2H294.2z M299.6,177.6h-2.7v-5.1l-2.9-2.9h-2.4v-1.8h5.3v2.7h2.7
	V177.6z"/>
<g>
	
		<rect x="289.2" y="208.8" transform="matrix(-0.7071 0.7071 -0.7071 -0.7071 646.5829 152.7364)" fill="#0082CA" width="4.9" height="2.9"/>
	<polygon fill="#0082CA" points="288.2,213.7 290.3,213.7 288.2,211.7 	"/>
	<path fill="#0082CA" d="M295.8,202.7h-6.2v4.9h0.7v-4.2h4.8v3.5h3.5v6.2H293v0.7h6.2v-7.6L295.8,202.7z M295.8,206.1v-2.5l2.5,2.5
		H295.8z"/>
</g>
<g>
	<polygon fill="#F3A31E" points="292.3,278.1 290.5,279.9 288.7,278.1 288,278.8 289.8,280.6 288,282.4 288.7,283.1 290.5,281.3 
		292.3,283.1 293.1,282.4 291.3,280.6 293.1,278.8 	"/>
	<path fill="#F3A31E" d="M295.9,271.6h-6.5v5.8h0.7v-5h5v3.6h3.6v6.5h-4.3v0.7h5v-7.9L295.9,271.6z M295.9,275.2v-2.6l2.6,2.6H295.9
		z"/>
</g>
<g>
	<polygon fill="#00AF41" points="294.1,245.6 291.6,245.6 291.6,243 290.6,243 290.6,245.6 288,245.6 288,246.6 290.6,246.6 
		290.6,249.1 291.6,249.1 291.6,246.6 294.1,246.6 	"/>
	<path fill="#00AF41" d="M295.9,237.6h-6.5v5.8h0.7v-5h5v3.6h3.6v6.5h-4.3v0.7h5v-7.9L295.9,237.6z M295.9,241.2v-2.6l2.6,2.6H295.9
		z"/>
</g>
<g>
	<rect x="291.7" y="306.4" fill="#39B54A" width="4.1" height="1"/>
	<rect x="291.7" y="308.5" fill="#39B54A" width="4.1" height="1"/>
	<polygon fill="#39B54A" points="293.8,318.7 288.7,312.6 291.7,312.6 291.7,310.5 295.8,310.5 295.8,312.6 298.9,312.6 	"/>
</g>
<g>
	<circle fill="#95D600" cx="288.4" cy="342.5" r="2.1"/>
	<circle fill="#BC6124" cx="293.8" cy="350.7" r="2.1"/>
	<rect x="290.4" y="344.6" transform="matrix(-0.8596 0.511 -0.511 -0.8596 718.1884 495.9358)" width="1" height="4.1"/>
	<circle fill="#C4A11C" cx="299.2" cy="342.5" r="2.1"/>
	<rect x="296.1" y="344.6" transform="matrix(0.8596 0.511 -0.511 0.8596 218.7723 -102.8885)" width="1" height="4.1"/>
</g>
<g>
	<polygon fill="#C4A11C" points="290.4,454.8 291.1,454.4 287.9,448.9 290.9,443.8 296.8,443.8 299.7,448.9 296.8,454 290.4,454 
		290.4,454.8 291.1,454.4 290.4,454.8 290.4,455.5 297.6,455.5 301.4,448.9 297.6,442.4 290,442.4 286.2,448.9 290,455.5 
		290.4,455.5 	"/>
</g>
<g>
	<path fill="#C4A11C" d="M300.5,483.9h-0.7c0,1.7-0.7,3.1-1.7,4.2c-1.1,1.1-2.6,1.7-4.2,1.7c-1.7,0-3.1-0.7-4.2-1.7
		c-1.1-1.1-1.7-2.6-1.7-4.2c0-1.7,0.7-3.1,1.7-4.2c1.1-1.1,2.6-1.7,4.2-1.7c1.7,0,3.1,0.7,4.2,1.7c1.1,1.1,1.7,2.6,1.7,4.2H300.5
		h0.7c0-4.1-3.3-7.4-7.4-7.4c-4.1,0-7.4,3.3-7.4,7.4c0,4.1,3.3,7.4,7.4,7.4c4.1,0,7.4-3.3,7.4-7.4H300.5z"/>
</g>
<g>
	<path fill="#D2AF1F" d="M294.6,547.8h-1.9c-1,0-1.9,0.8-1.9,1.9v3.8h0.9v5.6h3.8v-5.6h0.9v-3.8
		C296.5,548.6,295.6,547.8,294.6,547.8z"/>
	<circle fill="#D2AF1F" cx="293.7" cy="545.4" r="1.4"/>
	<circle fill="#D2AF1F" cx="299.3" cy="546.8" r="0.9"/>
	<path fill="#D2AF1F" d="M300.3,548.7h-1.9c-0.5,0-0.9,0.4-0.9,0.9v3.8h0.9v3.8h1.9v-3.8h0.9v-3.8
		C301.2,549.1,300.8,548.7,300.3,548.7z"/>
	<circle fill="#D2AF1F" cx="288" cy="546.8" r="0.9"/>
	<path fill="#D2AF1F" d="M289,548.7h-1.9c-0.5,0-0.9,0.4-0.9,0.9v3.8h0.9v3.8h1.9v-3.8h0.9v-3.8C289.9,549.1,289.5,548.7,289,548.7z
		"/>
</g>
<g>
	<circle fill="#D2AF1F" cx="293.7" cy="580" r="1.4"/>
	<path fill="#D2AF1F" d="M292.7,591.9h1.9l0.6-4.7h1.3V583c-0.6-0.3-1.3-0.5-2.2-0.6h-1.2c-0.9,0.1-1.7,0.3-2.2,0.6v4.1h1.3
		L292.7,591.9z"/>
	<path fill="#D2AF1F" d="M295.9,589.1l-0.1,0.9c2.4,0.3,3.3,0.9,3.6,1.3c-0.3,0.5-1.7,1.4-5.7,1.4c-4,0-5.3-1-5.7-1.4
		c0.3-0.4,1.2-1,3.6-1.3l-0.1-0.9c-3.1,0.3-5.4,1.2-5.4,2.3c0,1.3,3.4,2.4,7.6,2.4s7.6-1.1,7.6-2.4
		C301.3,590.3,299,589.4,295.9,589.1z"/>
</g>
<g>
	<path fill="#B9D532" d="M295.9,621.3h-1.4c-0.1-0.3-0.2-0.5-0.4-0.8l0.9-1c0.2-0.2,0.2-0.6,0-0.8l-0.4-0.4c-0.2-0.2-0.6-0.2-0.8,0
		l-1,1c-0.3-0.1-0.5-0.3-0.8-0.3v-1.3c0-0.3-0.3-0.6-0.6-0.6h-0.6c-0.3,0-0.6,0.3-0.6,0.6v1.3c-0.3,0.1-0.6,0.2-0.9,0.4l-0.8-0.8
		c-0.2-0.2-0.6-0.2-0.8,0l-0.4,0.4c-0.2,0.2-0.2,0.6,0,0.8l0.8,0.8c-0.2,0.3-0.3,0.6-0.4,1h-1.1c-0.3,0-0.6,0.3-0.6,0.6v0.6
		c0,0.3,0.3,0.6,0.6,0.6h1.1c0.1,0.3,0.3,0.7,0.5,0.9l-0.8,0.8c-0.2,0.2-0.2,0.6,0,0.8l0.4,0.4c0.2,0.2,0.6,0.2,0.8,0l0.9-0.9
		c0.3,0.1,0.6,0.2,0.9,0.3v1.2c0,0.3,0.3,0.6,0.6,0.6h0.6c0.3,0,0.6-0.3,0.6-0.6v-1.3c0.3-0.1,0.6-0.2,0.8-0.4l0.9,0.9
		c0.2,0.2,0.6,0.2,0.8,0l0.4-0.4c0.2-0.2,0.2-0.6,0-0.8l-1-1c0.1-0.3,0.2-0.5,0.3-0.8h1.4c0.3,0,0.6-0.3,0.6-0.6v-0.6
		C296.5,621.6,296.2,621.3,295.9,621.3z M291.2,623.7c-0.8,0-1.4-0.6-1.4-1.4c0-0.8,0.6-1.4,1.4-1.4c0.8,0,1.4,0.6,1.4,1.4
		C292.6,623.1,292,623.7,291.2,623.7z"/>
	<path fill="#B9D532" d="M300.8,617.1h-0.9c-0.1-0.2-0.1-0.3-0.2-0.5l0.6-0.6c0.1-0.1,0.1-0.4,0-0.5l-0.3-0.3
		c-0.1-0.1-0.4-0.1-0.5,0l-0.6,0.6c-0.2-0.1-0.3-0.2-0.5-0.2v-0.8c0-0.2-0.2-0.4-0.4-0.4h-0.4c-0.2,0-0.4,0.2-0.4,0.4v0.8
		c-0.2,0.1-0.4,0.1-0.6,0.2l-0.5-0.5c-0.1-0.1-0.4-0.1-0.5,0l-0.3,0.3c-0.1,0.1-0.1,0.4,0,0.5l0.5,0.5c-0.1,0.2-0.2,0.4-0.2,0.6H295
		c-0.2,0-0.4,0.2-0.4,0.4v0.4c0,0.2,0.2,0.4,0.4,0.4h0.7c0.1,0.2,0.2,0.4,0.3,0.6l-0.5,0.5c-0.1,0.1-0.1,0.4,0,0.5l0.3,0.3
		c0.1,0.1,0.4,0.1,0.5,0l0.6-0.6c0.2,0.1,0.4,0.2,0.6,0.2v0.8c0,0.2,0.2,0.4,0.4,0.4h0.4c0.2,0,0.4-0.2,0.4-0.4v-0.9
		c0.2-0.1,0.4-0.2,0.5-0.3l0.6,0.6c0.1,0.1,0.4,0.1,0.5,0l0.3-0.3c0.1-0.1,0.1-0.4,0-0.5l-0.6-0.6c0.1-0.2,0.1-0.3,0.2-0.5h0.9
		c0.2,0,0.4-0.2,0.4-0.4v-0.4C301.1,617.3,301,617.1,300.8,617.1z M297.8,618.7c-0.5,0-0.9-0.4-0.9-0.9c0-0.5,0.4-0.9,0.9-0.9
		c0.5,0,0.9,0.4,0.9,0.9C298.7,618.3,298.3,618.7,297.8,618.7z"/>
</g>
<g>
	<path fill="#FBB040" d="M408.6,173.9h-1.1c-0.3,0-0.5,0.2-0.5,0.5c0,0.3,0.2,0.5,0.5,0.5h1.1c0.3,0,0.5-0.2,0.5-0.5
		C409.1,174.2,408.9,173.9,408.6,173.9z"/>
	<path fill="#FBB040" d="M415.6,180.9c-0.3,0-0.5,0.2-0.5,0.5l0,1.1c0,0.3,0.2,0.5,0.5,0.5c0.3,0,0.5-0.2,0.5-0.5l0-1.1
		C416.1,181.2,415.9,180.9,415.6,180.9z"/>
	<path fill="#FBB040" d="M415.6,168c0.3,0,0.5-0.2,0.5-0.5l0-1.1c0-0.3-0.2-0.5-0.5-0.5c-0.3,0-0.5,0.2-0.5,0.5l0,1.1
		C415,167.7,415.3,168,415.6,168z"/>
	<path fill="#FBB040" d="M410.8,170.1c0.2-0.2,0.2-0.6,0-0.8l-0.8-0.7c-0.2-0.2-0.6-0.2-0.8,0c-0.2,0.2-0.2,0.6,0,0.8l0.8,0.7
		C410.2,170.4,410.6,170.3,410.8,170.1z"/>
	<path fill="#FBB040" d="M410.4,179.2l-0.7,0.8c-0.2,0.2-0.2,0.6,0,0.8c0.2,0.2,0.6,0.2,0.8,0l0.7-0.8c0.2-0.2,0.2-0.6,0-0.8
		C410.9,179,410.6,179,410.4,179.2z"/>
	<path fill="#808285" d="M422.6,175h1.1c0.3,0,0.5-0.2,0.5-0.5c0-0.3-0.2-0.5-0.5-0.5h-1.1c-0.3,0-0.5,0.2-0.5,0.5
		C422,174.7,422.3,175,422.6,175z"/>
	<path fill="#808285" d="M415.6,168c0.3,0,0.5-0.2,0.5-0.5l0-1.1c0-0.3-0.2-0.5-0.5-0.5c-0.3,0-0.5,0.2-0.5,0.5l0,1.1
		C415,167.7,415.3,168,415.6,168z"/>
	<path fill="#808285" d="M415.6,180.9c-0.3,0-0.5,0.2-0.5,0.5l0,1.1c0,0.3,0.2,0.5,0.5,0.5c0.3,0,0.5-0.2,0.5-0.5l0-1.1
		C416.1,181.2,415.9,180.9,415.6,180.9z"/>
	<path fill="#808285" d="M420.4,178.8c-0.2,0.2-0.2,0.6,0,0.8l0.8,0.7c0.2,0.2,0.6,0.2,0.8,0c0.2-0.2,0.2-0.6,0-0.8l-0.8-0.7
		C420.9,178.5,420.6,178.6,420.4,178.8z"/>
	<path fill="#808285" d="M420.7,169.7l0.7-0.8c0.2-0.2,0.2-0.6,0-0.8c-0.2-0.2-0.6-0.2-0.8,0l-0.7,0.8c-0.2,0.2-0.2,0.6,0,0.8
		C420.2,169.9,420.5,169.9,420.7,169.7z"/>
	<path fill="#808285" d="M415.6,169.1v1.5c2.1,0,3.8,1.7,3.8,3.8s-1.7,3.8-3.8,3.8v1.5c3,0,5.4-2.4,5.4-5.4
		C420.9,171.5,418.5,169.1,415.6,169.1z"/>
	<path fill="#FBB040" d="M411.7,174.5c0-2.1,1.7-3.8,3.8-3.8v-1.5c-3,0-5.4,2.4-5.4,5.4c0,3,2.4,5.4,5.4,5.4v-1.5
		C413.4,178.3,411.7,176.6,411.7,174.5z"/>
</g>
</svg>
