<?xml version="1.0" encoding="iso-8859-1"?>
<!-- Generator: Adobe Illustrator 17.1.0, SVG Export Plug-In . SVG Version: 6.00 Build 0)  -->
<!DOCTYPE svg PUBLIC "-//W3C//DTD SVG 1.1//EN" "http://www.w3.org/Graphics/SVG/1.1/DTD/svg11.dtd">
<svg version="1.1" id="Layer_1" xmlns="http://www.w3.org/2000/svg" xmlns:xlink="http://www.w3.org/1999/xlink" x="0px" y="0px"
	 viewBox="0 0 20 20" style="enable-background:new 0 0 20 20;" xml:space="preserve">
<g>
	<path style="fill:#C2A02E;" d="M7.14,4.336c0.275,0,0.5-0.225,0.5-0.5v-1c0-0.275-0.225-0.5-0.5-0.5c-0.275,0-0.5,0.225-0.5,0.5v1
		C6.64,4.112,6.865,4.336,7.14,4.336z"/>
	<path style="fill:#C2A02E;" d="M3.751,5.862c0.194,0.195,0.513,0.195,0.707,0c0.194-0.193,0.194-0.512,0-0.707L3.751,4.448
		c-0.194-0.193-0.513-0.193-0.707,0c-0.194,0.195-0.194,0.514,0,0.707L3.751,5.862z"/>
	<path style="fill:#C2A02E;" d="M3.139,8.336L2.14,8.338c-0.275,0-0.5,0.225-0.5,0.498c0.001,0.275,0.226,0.5,0.501,0.5h0.998
		c0.275,0,0.5-0.225,0.5-0.5S3.414,8.336,3.139,8.336z"/>
	<path style="fill:#C2A02E;" d="M10.823,5.155l0.706-0.707c0.194-0.195,0.194-0.514-0.001-0.707l0,0
		c-0.195-0.193-0.514-0.193-0.708,0l-0.704,0.707c-0.194,0.193-0.194,0.512,0,0.707C10.31,5.348,10.628,5.348,10.823,5.155z"/>
	<path style="fill:#C2A02E;" d="M8.14,8.836l0.268,0.01c0.553-0.678,1.255-1.199,2.042-1.545c-0.421-1.146-1.517-1.965-2.81-1.965
		c-1.657,0-3,1.344-3,3c0,0.66,0.22,1.266,0.582,1.76C5.951,9.319,6.987,8.836,8.14,8.836z"/>
	<path style="fill:#B0C6CC;" d="M16.52,13.268c0.072-0.301,0.12-0.609,0.12-0.932c0-2.209-1.791-4-4-4
		c-1.554,0-2.886,0.896-3.548,2.189c-0.293-0.121-0.614-0.189-0.952-0.189c-1.352,0-2.446,1.076-2.492,2.416
		c-1.193,0.522-2.008,1.481-2.008,2.584c0,1.65,1.8,3,4,3h6c2.2,0,4-1.35,4-3C17.64,14.536,17.209,13.807,16.52,13.268z"/>
</g>
</svg>
