<?xml version="1.0" encoding="iso-8859-1"?>
<!-- Generator: Adobe Illustrator 17.1.0, SVG Export Plug-In . SVG Version: 6.00 Build 0)  -->
<!DOCTYPE svg PUBLIC "-//W3C//DTD SVG 1.1//EN" "http://www.w3.org/Graphics/SVG/1.1/DTD/svg11.dtd">
<svg version="1.1" id="Layer_1" xmlns="http://www.w3.org/2000/svg" xmlns:xlink="http://www.w3.org/1999/xlink" x="0px" y="0px"
	 viewBox="0 0 20 20" style="enable-background:new 0 0 20 20;" xml:space="preserve">
<g>
	<path style="fill:#0076A9;" d="M9.495,2.18c-4.141,0-7.5,3.359-7.5,7.5s3.359,7.5,7.5,7.5s7.5-3.359,7.5-7.5
		S13.635,2.18,9.495,2.18z M12.505,12.979l-0.053,0.236l-0.025-0.05c-0.332,0.27-0.328,1.034-0.779,1.225
		c-0.242,0.102-0.212-0.225-0.121-0.341c0.135-0.172-0.05-0.284,0.034-0.453l-0.016-0.009l-0.002,0.001v-0.002
		c-0.082-0.019-0.161-0.224-0.161-0.34c0.097-0.018,0.146-0.076,0.154-0.041l0.138-0.259c0.03,0.172-0.217,0.505-0.131,0.64
		l0.002,0.001l0.089-0.057c0,0.091,0.02,0.177,0.057,0.26c-0.105-0.412,0.314-0.425,0.504-0.669
		c0.072-0.095,0.189-0.356,0.281-0.394l0.033,0.235L12.505,12.979z M14.59,8.131c-0.16-0.254-0.262-0.66-0.494-0.853l0.017,0.213
		c-0.121-0.036-0.22-0.105-0.291-0.213c-0.012-0.049,0.124,0.066,0.049-0.08c-0.192,0.025-0.33-0.173-0.487-0.283
		c-0.276-0.036-0.577,0.197-0.859,0.032c-0.066-0.039-0.128-0.267-0.231-0.135l-0.191,0.046c-0.315-0.096-0.452-0.366-0.737-0.374
		c0.003,0.121,0.206,0.3,0.303,0.355c0.127,0.073,0.216,0.392,0.231,0.107c0.182,0.104,0.053,0.337,0.311,0.251
		c0.196,0.076,0.144-0.238,0.185-0.332l0.146,0.238c0.102,0.096,0.249,0.059,0.344,0.157c0.12,0.125,0.189,0.305,0.159,0.455
		c-0.112-0.009-0.023,0.135-0.094,0.245c-0.076,0.115-0.069,0.141-0.117,0.266c-0.133,0.033-0.29,0.094-0.266,0.267
		c-0.093,0.111-0.921,0.711-1.03,0.547c-0.135-0.203-0.168-0.485-0.277-0.7c-0.162-0.054-0.5-0.466-0.566-0.625
		c0.05-0.28-0.69-0.831-0.811-0.835c0.088,0.381,0.416,0.582,0.567,0.876c0.128,0.252,0.363,0.844,0.559,0.925
		c0.327-0.031,0.528,0.562,0.703,0.686c0.227,0.158,0.694-0.355,0.894-0.305c0.022,0.27,0.018,0.351-0.064,0.648
		c-0.166,0.609-0.446,0.873-0.807,1.367c-0.208,0.284-0.343,0.484-0.499,0.797c-0.122,0.247,0.235,0.764,0.138,0.901
		c0.053,0.403-0.046,0.64-0.394,0.841c-0.255,0.148-0.475,0.289-0.389,0.568c0.087,0.279-0.261,0.323-0.302,0.481
		c-0.106,0.26-0.255,0.398-0.434,0.496c-0.12,0.008-0.239,0.018-0.36,0.018c-0.219,0-0.434-0.017-0.646-0.041
		c-0.283-0.354-0.576-0.729-0.879-1.082c-0.185-0.211-0.434-0.596-0.164-0.867c0.03-0.176-0.181-0.582-0.274-0.737
		c-0.157-0.263-0.883-0.831-0.6-1.136c0.039-0.201-0.138-0.401-0.138-0.56c-0.154-0.124-0.311,0.166-0.462-0.097
		c-0.16-0.281-0.451-0.204-0.692-0.031l-0.783,0.084c-0.51-0.455-0.672-1.169-0.495-1.781c0.072-0.254,0.081-0.705,0.283-0.875
		c0.066-0.264,0.371-0.523,0.533-0.74C5.263,7.201,5.404,7.19,5.505,7.071c0.151-0.178,0.225-0.389,0.42-0.546
		c0.197-0.156,0.62-0.423,0.261-0.48c0.143-0.209,0.37-0.437,0.454-0.688c0.123-0.099,0.353-0.058,0.492-0.126
		c0.119-0.244,0.168-0.236,0.123-0.393c0.024-0.1,0.341-0.176,0.408-0.201c0.125-0.049,0.236-0.164,0.35-0.248
		C8.485,4.256,8.981,4.18,9.495,4.18c2.731,0,4.996,2.002,5.422,4.613C14.792,8.553,14.681,8.274,14.59,8.131z"/>
	<path style="fill:#0076A9;" d="M9.403,4.831l0.05-0.057C9.277,4.839,9.391,4.647,9.226,4.839c0.043,0.146-0.148,0.242-0.065,0.397
		C9.332,5.38,9.503,5.157,9.671,5.13c-0.001,0.099,0.352,0.084,0.405,0.098c-0.095-0.023,0.032-0.02,0,0
		C10.397,5.028,9.415,4.838,9.403,4.831z"/>
	<path style="fill:#0076A9;" d="M9.128,5.796c0.012-0.08-0.084-0.086-0.121-0.187c0.128-0.152-0.111-0.076,0.017-0.242H8.829
		c-0.027,0.109,0.054,0.07-0.091,0.04C8.69,5.524,8.85,5.604,8.829,5.714L8.763,5.69C8.743,5.769,8.757,5.751,8.755,5.876
		c-0.223-0.041-0.102-0.21-0.292-0.453C8.636,5.285,8.105,5.014,8.18,4.928C7.805,5.029,8.478,5.422,8.375,5.511
		C8.201,5.413,8.326,5.55,8.22,5.668c-0.153,0.175-0.14,0.233-0.374,0.144c-0.01-0.194,0.44-0.021,0.234-0.377
		C7.978,5.258,7.88,5.049,7.685,5.178C7.502,5.299,7.171,5.37,7.028,5.633L6.355,6.217c0.229,0.186,1.128-0.549,1.354-0.333
		c-0.015,0.152-0.19,0.268-0.194,0.421l0.162,0.105c0.298-0.064,0.218,0.141,0.438,0.194c0.367,0.091,0.087,0.022,0.318-0.207
		c0.076-0.073,0.481-0.066,0.5,0.062c-0.012-0.079,0.17-0.031,0,0c0.181-0.033,0.354,0.148,0.488,0.014
		C9.516,6.38,9.594,6.398,9.666,6.451c0.327,0.236,0.217-0.685,0.226-0.728C9.778,5.796,9.123,5.864,9.128,5.796z M7.685,5.658
		L7.571,5.681c0.03-0.095,0.168-0.433,0.252-0.446C7.817,5.357,7.706,5.532,7.685,5.658z"/>
	<path style="fill:#0076A9;" d="M10.587,4.813l0.099-0.098c-0.056-0.244-0.309-0.047-0.309,0.108
		c0.095,0.114,0.479,0.314,0.503,0.421c-0.089,0.034,0.022,0.303,0.162,0.292c0.099,0.084,0.21,0.1,0.332,0.049
		C11.341,5.357,10.772,4.911,10.587,4.813z"/>
	<path style="fill:#0076A9;" d="M11.325,4.846c-0.091-0.02-0.188-0.223-0.283-0.252l-0.016,0.082
		C11.061,4.735,11.219,4.959,11.325,4.846z"/>
	<polygon style="fill:#0076A9;" points="7.213,5.171 7.131,5.231 7.125,5.244 	"/>
</g>
</svg>
