<?xml version="1.0" encoding="iso-8859-1"?>
<!-- Generator: Adobe Illustrator 17.1.0, SVG Export Plug-In . SVG Version: 6.00 Build 0)  -->
<!DOCTYPE svg PUBLIC "-//W3C//DTD SVG 1.1//EN" "http://www.w3.org/Graphics/SVG/1.1/DTD/svg11.dtd">
<svg version="1.1" id="Layer_1" xmlns="http://www.w3.org/2000/svg" xmlns:xlink="http://www.w3.org/1999/xlink" x="0px" y="0px"
	 viewBox="0 0 20 20" style="enable-background:new 0 0 20 20;" xml:space="preserve">
<path style="fill:#9A8478;" d="M17.009,6.346v-1h-3v-3h-1v3h-3v-3h-1v3h-3v-3h-1v3h-3v1h3v3h-3v1h3v3h-3v1h3v3h1v-3h3v3h1v-3h3v3h1
	v-3h3v-1h-3v-3h3v-1h-3v-3H17.009z M9.009,13.346h-3v-3h3V13.346z M9.009,9.346h-3v-3h3V9.346z M13.009,13.346h-3v-3h3V13.346z
	 M13.009,9.346h-3v-3h3V9.346z"/>
</svg>
