<?xml version="1.0" encoding="utf-8"?>
<!-- Generator: Adobe Illustrator 17.1.0, SVG Export Plug-In . SVG Version: 6.00 Build 0)  -->
<!DOCTYPE svg PUBLIC "-//W3C//DTD SVG 1.1//EN" "http://www.w3.org/Graphics/SVG/1.1/DTD/svg11.dtd">
<svg version="1.1" id="Layer_1" xmlns="http://www.w3.org/2000/svg" xmlns:xlink="http://www.w3.org/1999/xlink" x="0px" y="0px"
	 viewBox="1.975 1.994 14.906 14.909" enable-background="new 1.975 1.994 14.906 14.909" xml:space="preserve">
<path fill="#39B54A" d="M16.627,14.18l-3.191-3.188c0.467-0.863,0.757-1.836,0.757-2.888c0-3.376-2.738-6.11-6.112-6.11
	c-3.372,0-6.106,2.736-6.106,6.112s2.734,6.107,6.11,6.107c1.047,0,2.018-0.29,2.884-0.753l3.188,3.189
	c0.341,0.338,0.896,0.34,1.233,0l1.238-1.236C16.965,15.077,16.965,14.519,16.627,14.18z M12.137,9.694
	c-0.443,1.128-1.339,2.025-2.468,2.468c-0.495,0.191-1.027,0.306-1.586,0.306C5.677,12.471,3.72,10.512,3.72,8.107
	c0-2.408,1.956-4.364,4.364-4.361c2.403-0.003,4.363,1.954,4.363,4.359C12.444,8.665,12.332,9.199,12.137,9.694z"/>
</svg>
