<?xml version="1.0" encoding="utf-8"?>
<!-- Generator: Adobe Illustrator 17.1.0, SVG Export Plug-In . SVG Version: 6.00 Build 0)  -->
<!DOCTYPE svg PUBLIC "-//W3C//DTD SVG 1.1//EN" "http://www.w3.org/Graphics/SVG/1.1/DTD/svg11.dtd">
<svg version="1.1" id="Layer_1" xmlns="http://www.w3.org/2000/svg" xmlns:xlink="http://www.w3.org/1999/xlink" x="0px" y="0px"
	 viewBox="28.4 235.3 18.1 15.5" enable-background="new 28.4 235.3 18.1 15.5" xml:space="preserve">
<g>
	
		<ellipse transform="matrix(-0.4308 -0.9024 0.9024 -0.4308 -172.89 377.9362)" fill="#C2B59B" cx="32.7" cy="243.5" rx="8" ry="2.9"/>
	<path fill="#9B8579" d="M36.2,250.7c-1.5,0.7-4.2-2-6.1-6c-1.9-4-2.3-7.8-0.8-8.5L36.2,250.7z"/>
	<path fill="#C2B59B" d="M34.3,236.6C34.3,236.6,34.2,236.6,34.3,236.6c-0.3,0.5-0.5,0.9-0.6,1.5c-0.3,1.2-0.5,2.5-0.7,3.7
		c-0.3,1.8,1.1,3.3,2.4,4.3c0.2,0.2,0.5,0.4,0.7,0.5c1.6-0.3,3.1-0.7,4.6-1.3c0.2-0.1,0.4-0.1,0.5-0.2c-0.4-1.3-0.9-2.7-1.6-4.1
		c-0.9-1.8-1.9-3.4-2.9-4.7C36,236.8,35.2,236.9,34.3,236.6z"/>
	<path fill="#9B8579" d="M32.9,241.8c-0.3,1.8,1.1,3.3,2.4,4.3c0.2,0.2,0.5,0.4,0.7,0.5c0.6-0.1,1.2-0.3,1.9-0.4l-4.1-8.5
		c0,0.1-0.1,0.2-0.1,0.4C33.3,239.3,33.1,240.6,32.9,241.8z"/>
	<path fill="#39B54A" d="M46.2,247.5l-3.2-3.2c0.5-0.9,0.8-1.8,0.8-2.9c0-3.4-2.7-6.1-6.1-6.1c-3.4,0-6.1,2.7-6.1,6.1
		s2.7,6.1,6.1,6.1c1,0,2-0.3,2.9-0.8l3.2,3.2c0.3,0.3,0.9,0.3,1.2,0l1.2-1.2C46.6,248.4,46.6,247.8,46.2,247.5z M41.7,243
		c-0.4,1.1-1.3,2-2.5,2.5c-0.5,0.2-1,0.3-1.6,0.3c-2.4,0-4.4-2-4.4-4.4c0-2.4,2-4.4,4.4-4.4c2.4,0,4.4,2,4.4,4.4
		C42,242,41.9,242.5,41.7,243z"/>
</g>
<rect x="24.4" y="230.3" fill="none" stroke="#000000" stroke-width="0.25" stroke-miterlimit="10" width="25.6" height="25.6"/>
</svg>
