<?xml version="1.0" encoding="iso-8859-1"?>
<!-- Generator: Adobe Illustrator 17.1.0, SVG Export Plug-In . SVG Version: 6.00 Build 0)  -->
<!DOCTYPE svg PUBLIC "-//W3C//DTD SVG 1.1//EN" "http://www.w3.org/Graphics/SVG/1.1/DTD/svg11.dtd">
<svg version="1.1" id="lock-1" xmlns="http://www.w3.org/2000/svg" xmlns:xlink="http://www.w3.org/1999/xlink" x="0px" y="0px"
	 viewBox="0 0 18 18" style="enable-background:new 0 0 18 18;" xml:space="preserve">
<path style="fill:#666666;" d="M13.842,7.412h-1.014V5.07c0-2.258-1.802-4.095-4.017-4.095c-2.214,0-4.016,1.837-4.016,4.095v2.342
	H3.781c-0.276,0-0.5,0.224-0.5,0.5v8.433c0,0.276,0.224,0.5,0.5,0.5h10.061c0.276,0,0.5-0.224,0.5-0.5V7.912
	C14.342,7.636,14.118,7.412,13.842,7.412z M6.796,5.07c0-1.155,0.904-2.095,2.016-2.095c1.112,0,2.017,0.94,2.017,2.095v2.342H6.796
	V5.07z"/>
</svg>
