<?xml version="1.0" encoding="iso-8859-1"?>
<!-- Generator: Adobe Illustrator 17.1.0, SVG Export Plug-In . SVG Version: 6.00 Build 0)  -->
<!DOCTYPE svg PUBLIC "-//W3C//DTD SVG 1.1//EN" "http://www.w3.org/Graphics/SVG/1.1/DTD/svg11.dtd">
<svg version="1.1" id="lock-open-1" xmlns="http://www.w3.org/2000/svg" xmlns:xlink="http://www.w3.org/1999/xlink" x="0px"
	 y="0px" viewBox="0 0 18 18" style="enable-background:new 0 0 18 18;" xml:space="preserve">
<path style="fill:#666666;" d="M16.374,7.445H9.036V5.083c0-2.271-1.848-4.118-4.119-4.118c-2.271,0-4.118,1.847-4.118,4.118v2.695
	c0,0.552,0.448,1,1,1c0.552,0,1-0.448,1-1V5.083c0-1.168,0.95-2.118,2.118-2.118c1.168,0,2.119,0.95,2.119,2.118v2.363H5.971
	c-0.276,0-0.5,0.224-0.5,0.5v8.496c0,0.276,0.224,0.5,0.5,0.5h10.403c0.276,0,0.5-0.224,0.5-0.5V7.945
	C16.874,7.669,16.65,7.445,16.374,7.445z"/>
</svg>
