<?xml version="1.0" encoding="iso-8859-1"?>
<!-- Generator: Adobe Illustrator 17.1.0, SVG Export Plug-In . SVG Version: 6.00 Build 0)  -->
<!DOCTYPE svg PUBLIC "-//W3C//DTD SVG 1.1//EN" "http://www.w3.org/Graphics/SVG/1.1/DTD/svg11.dtd">
<svg version="1.1" id="Layer_1" xmlns="http://www.w3.org/2000/svg" xmlns:xlink="http://www.w3.org/1999/xlink" x="0px" y="0px"
	 viewBox="0 0 20 20" style="enable-background:new 0 0 20 20;" xml:space="preserve">
<g>
	<path style="fill:#698A3B;" d="M10.396,2v16h7.875V2H10.396z M17.396,17h-6.125V3h6.125V17z"/>
	<rect x="12.271" y="7" style="fill:#698A3B;" width="3" height="1"/>
	<rect x="12.271" y="13" style="fill:#96C93D;" width="1" height="1"/>
	<rect x="12.271" y="5" style="fill:#96C93D;" width="1" height="1"/>
	<rect x="12.271" y="9" style="fill:#96C93D;" width="1" height="1"/>
	<rect x="12.271" y="11" style="fill:#698A3B;" width="3" height="1"/>
	<rect x="12.271" y="15" style="fill:#698A3B;" width="3" height="1"/>
	<polygon style="fill:#808284;" points="2.271,6 8.271,6 5.271,2 	"/>
	<polygon style="fill:#C2A02E;" points="2.271,16 3.271,16 3.271,8 4.271,8 4.271,16 6.271,16 6.271,8 7.271,8 7.271,16 8.271,16 
		8.271,7 2.271,7 	"/>
	<path style="fill:#C2A02E;" d="M2.271,17c0,0.552,0.447,1,1,1h4c0.553,0,1-0.448,1-1v-1h-6V17z"/>
</g>
</svg>
