<?xml version="1.0" encoding="iso-8859-1"?>
<!-- Generator: Adobe Illustrator 17.1.0, SVG Export Plug-In . SVG Version: 6.00 Build 0)  -->
<!DOCTYPE svg PUBLIC "-//W3C//DTD SVG 1.1//EN" "http://www.w3.org/Graphics/SVG/1.1/DTD/svg11.dtd">
<svg version="1.1" id="Layer_1" xmlns="http://www.w3.org/2000/svg" xmlns:xlink="http://www.w3.org/1999/xlink" x="0px" y="0px"
	 viewBox="0 0 20 20" style="enable-background:new 0 0 20 20;" xml:space="preserve">
<g>
	<path style="fill:#1F4396;" d="M5.706,2.173h-3c-0.275,0-0.5,0.225-0.5,0.5v3c0,0.275,0.225,0.5,0.5,0.5h3
		c0.275,0,0.5-0.225,0.5-0.5v-3C6.206,2.397,5.981,2.173,5.706,2.173z"/>
	<path style="fill:#1F4396;" d="M5.706,8.173h-3c-0.275,0-0.5,0.225-0.5,0.5v3c0,0.275,0.225,0.5,0.5,0.5h3
		c0.275,0,0.5-0.225,0.5-0.5v-3C6.206,8.397,5.981,8.173,5.706,8.173z"/>
	<path style="fill:#1F4396;" d="M5.706,14.173h-3c-0.275,0-0.5,0.225-0.5,0.5v3c0,0.275,0.225,0.5,0.5,0.5h3
		c0.275,0,0.5-0.225,0.5-0.5v-3C6.206,14.397,5.981,14.173,5.706,14.173z"/>
	<path style="fill:#1F4396;" d="M11.706,2.173h-3c-0.275,0-0.5,0.225-0.5,0.5v3c0,0.275,0.225,0.5,0.5,0.5h3
		c0.275,0,0.5-0.225,0.5-0.5v-3C12.206,2.397,11.981,2.173,11.706,2.173z"/>
	<path style="fill:#1F4396;" d="M11.706,8.173h-3c-0.275,0-0.5,0.225-0.5,0.5v3c0,0.275,0.225,0.5,0.5,0.5h3
		c0.275,0,0.5-0.225,0.5-0.5v-3C12.206,8.397,11.981,8.173,11.706,8.173z"/>
	<path style="fill:#1F4396;" d="M11.706,14.173h-3c-0.275,0-0.5,0.225-0.5,0.5v3c0,0.275,0.225,0.5,0.5,0.5h3
		c0.275,0,0.5-0.225,0.5-0.5v-3C12.206,14.397,11.981,14.173,11.706,14.173z"/>
	<path style="fill:#1F4396;" d="M17.706,2.173h-3c-0.275,0-0.5,0.225-0.5,0.5v3c0,0.275,0.225,0.5,0.5,0.5h3
		c0.275,0,0.5-0.225,0.5-0.5v-3C18.206,2.397,17.981,2.173,17.706,2.173z"/>
	<path style="fill:#1F4396;" d="M17.706,8.173h-3c-0.275,0-0.5,0.225-0.5,0.5v3c0,0.275,0.225,0.5,0.5,0.5h3
		c0.275,0,0.5-0.225,0.5-0.5v-3C18.206,8.397,17.981,8.173,17.706,8.173z"/>
	<path style="fill:#1F4396;" d="M17.706,14.173h-3c-0.275,0-0.5,0.225-0.5,0.5v3c0,0.275,0.225,0.5,0.5,0.5h3
		c0.275,0,0.5-0.225,0.5-0.5v-3C18.206,14.397,17.981,14.173,17.706,14.173z"/>
</g>
</svg>
