<?xml version="1.0" encoding="iso-8859-1"?>
<!-- Generator: Adobe Illustrator 17.1.0, SVG Export Plug-In . SVG Version: 6.00 Build 0)  -->
<!DOCTYPE svg PUBLIC "-//W3C//DTD SVG 1.1//EN" "http://www.w3.org/Graphics/SVG/1.1/DTD/svg11.dtd">
<svg version="1.1" id="Layer_1" xmlns="http://www.w3.org/2000/svg" xmlns:xlink="http://www.w3.org/1999/xlink" x="0px" y="0px"
	 viewBox="0 0 20 20" style="enable-background:new 0 0 20 20;" xml:space="preserve">
<path style="fill:#BC6228;" d="M17.237,12.69l-2.828-2.828l-1.414,1.414L7.268,5.551C7.309,5.44,7.336,5.325,7.336,5.206v-2
	c0-0.264-0.105-0.52-0.293-0.707L6.629,2.085C6.442,1.897,6.188,1.792,5.922,1.792c-0.265,0-0.52,0.105-0.707,0.293L2.388,4.913
	c-0.391,0.391-0.391,1.023,0,1.414l0.414,0.414C2.99,6.928,3.244,7.034,3.509,7.034h1.999c0.12,0,0.236-0.029,0.346-0.07
	l5.726,5.727l-1.414,1.414l2.828,2.828c2.828,1.414,4.242,0,4.242,0S18.651,15.518,17.237,12.69z M6.336,5.206L5.508,6.034H3.509
	L3.096,5.62l2.827-2.828l0.414,0.414V5.206z"/>
</svg>
