<?xml version="1.0" encoding="iso-8859-1"?>
<!-- Generator: Adobe Illustrator 17.1.0, SVG Export Plug-In . SVG Version: 6.00 Build 0)  -->
<!DOCTYPE svg PUBLIC "-//W3C//DTD SVG 1.1//EN" "http://www.w3.org/Graphics/SVG/1.1/DTD/svg11.dtd">
<svg version="1.1" id="Layer_1" xmlns="http://www.w3.org/2000/svg" xmlns:xlink="http://www.w3.org/1999/xlink" x="0px" y="0px"
	 viewBox="0 0 24 24" style="enable-background:new 0 0 24 24;" xml:space="preserve">
<g>
	<path style="fill:#B8D433;" d="M21.581,12.136h-1c-0.001,2.292-0.926,4.359-2.428,5.862c-1.503,1.502-3.57,2.428-5.862,2.428
		c-2.293-0.001-4.359-0.926-5.862-2.428C4.926,16.494,4,14.428,4,12.136C4,9.843,4.926,7.777,6.428,6.273
		c1.503-1.502,3.57-2.428,5.862-2.428c2.293,0.001,4.359,0.926,5.862,2.428c1.502,1.503,2.428,3.57,2.428,5.862H21.581h1
		C22.58,6.452,17.974,1.846,12.29,1.845C6.607,1.846,2.001,6.452,2,12.136c0.001,5.684,4.607,10.29,10.29,10.29
		c5.684-0.001,10.29-4.607,10.29-10.29H21.581z"/>
</g>
</svg>
